<?xml version="1.0" encoding="UTF-8"?>
<svg id="Layer_1" data-name="Layer 1" xmlns="http://www.w3.org/2000/svg" viewBox="0 0 4859.63 1350">
  <defs>
    <style>
      .cls-1 {
        fill: none;
      }

      .cls-2 {
        fill: #fff;
      }
    </style>
  </defs>
  <path class="cls-1" d="M838.49,1061.98c-51.79,21.91-106.8,33.02-163.49,33.02s-111.69-11.11-163.49-33.02c-50.02-21.16-94.93-51.44-133.49-90-38.56-38.56-68.84-83.48-90-133.49-21.91-51.79-33.02-106.8-33.02-163.49s11.11-111.69,33.02-163.49c17.91-42.34,42.38-81.01,72.86-115.28l-109.76-109.76c-44.64,48.61-80.22,103.91-105.94,164.72-29.98,70.87-45.18,146.17-45.18,223.81s15.2,152.94,45.18,223.81c28.96,68.47,70.42,129.96,123.24,182.78,52.81,52.81,114.31,94.28,182.78,123.24,70.87,29.98,146.17,45.18,223.81,45.18s152.94-15.2,223.81-45.18c60.81-25.72,116.11-61.31,164.72-105.94l-109.76-109.76c-34.27,30.48-72.94,54.95-115.28,72.86Z"/>
  <path class="cls-1" d="M413.37,936.63c69.88,69.88,162.8,108.37,261.63,108.37,90.45,0,175.93-32.26,243.35-91.29L396.29,431.65c-59.04,67.42-91.29,152.9-91.29,243.35,0,98.83,38.49,191.75,108.37,261.63Z"/>
  <path class="cls-2" d="M1250.87,918.29c16.88-39.92,29.44-81.12,37.64-123.29h-51.02c-7.53,35.45-18.43,70.13-32.67,103.81-25.72,60.81-61.31,116.11-105.94,164.72l35.39,35.39c49.19-53.21,88.37-113.86,116.61-180.63Z"/>
  <path class="cls-2" d="M451.19,145.18c70.87-29.98,146.17-45.18,223.81-45.18s152.94,15.2,223.81,45.18c68.47,28.96,129.96,70.42,182.78,123.24,52.81,52.81,94.28,114.31,123.24,182.78,14.24,33.68,25.14,68.36,32.67,103.81h51.02c-8.2-42.17-20.76-83.37-37.64-123.29-31.48-74.43-76.54-141.27-133.93-198.66-57.39-57.39-124.23-102.45-198.66-133.93-77.07-32.6-158.92-49.13-243.29-49.13s-166.22,16.53-243.29,49.13c-66.76,28.24-127.42,67.41-180.63,116.61l35.39,35.39c48.61-44.64,103.91-80.22,164.72-105.94Z"/>
  <path class="cls-2" d="M898.81,1204.82c-70.87,29.98-146.17,45.18-223.81,45.18s-152.94-15.2-223.81-45.18c-68.47-28.96-129.96-70.42-182.78-123.24-52.81-52.82-94.28-114.31-123.24-182.78-29.98-70.87-45.18-146.17-45.18-223.81s15.2-152.94,45.18-223.81c25.72-60.81,61.31-116.11,105.94-164.72l-35.39-35.39c-49.19,53.21-88.37,113.86-116.61,180.63-32.6,77.07-49.13,158.92-49.13,243.29s16.53,166.22,49.13,243.29c31.48,74.43,76.54,141.26,133.93,198.66,57.39,57.39,124.23,102.45,198.66,133.93,77.07,32.6,158.92,49.13,243.29,49.13s166.22-16.53,243.29-49.13c66.77-28.24,127.42-67.41,180.63-116.61l-35.39-35.39c-48.61,44.64-103.91,80.22-164.72,105.94Z"/>
  <path class="cls-2" d="M1061.98,838.49c6.03-14.26,11.24-28.77,15.63-43.49h-52.44c-15.39,45.03-39.49,86.85-71.46,123.36l35.41,35.41c30.48-34.27,54.95-72.94,72.86-115.28Z"/>
  <path class="cls-2" d="M675,305c98.83,0,191.75,38.49,261.63,108.37,40.56,40.56,70.52,88.89,88.54,141.63h52.44c-4.39-14.72-9.6-29.23-15.63-43.49-21.16-50.02-51.44-94.93-90-133.49-38.56-38.56-83.48-68.84-133.49-90-51.79-21.91-106.8-33.02-163.49-33.02s-111.69,11.11-163.49,33.02c-42.34,17.91-81.01,42.38-115.28,72.86l35.42,35.42c67.42-59.04,152.9-91.29,243.35-91.29Z"/>
  <path class="cls-2" d="M255,675c0,56.69,11.11,111.7,33.02,163.49,21.15,50.02,51.44,94.93,90,133.49,38.56,38.56,83.48,68.84,133.49,90,51.8,21.91,106.8,33.02,163.49,33.02s111.7-11.11,163.49-33.02c42.34-17.91,81.01-42.38,115.28-72.86l-35.42-35.42c-67.42,59.04-152.9,91.29-243.35,91.29-98.83,0-191.75-38.49-261.63-108.37-69.88-69.88-108.37-162.8-108.37-261.63,0-90.45,32.26-175.93,91.29-243.35l-35.42-35.42c-30.48,34.27-54.95,72.94-72.86,115.28-21.91,51.8-33.02,106.8-33.02,163.49Z"/>
  <rect class="cls-2" x="332.15" y="170.93" width="50" height="231.08" transform="translate(-97.96 336.45) rotate(-45)"/>
  <rect class="cls-2" x="1121.84" y="704.46" width="50" height="231.08" transform="translate(326.84 1966.84) rotate(-90)"/>
  <rect class="cls-2" x="1136.42" y="414.46" width="50" height="231.08" transform="translate(631.42 1691.42) rotate(-90)"/>
  <rect class="cls-2" x="963.63" y="943.76" width="50" height="231.08" transform="translate(-459.47 1009.33) rotate(-45)"/>
  <g>
    <path class="cls-2" d="M1663.68,1051c-54,0-102.17-11.66-144.5-35-42.34-23.33-75.5-55.33-99.5-96-24-40.66-36-87.33-36-140s12-99.33,36-140c24-40.66,57.16-72.5,99.5-95.5,42.33-23,90.5-34.5,144.5-34.5,48,0,90.83,9.5,128.5,28.5,37.66,19,66.83,47.17,87.5,84.5l-73,47c-17.34-26-38.5-45.16-63.5-57.5-25-12.33-51.84-18.5-80.5-18.5-34.67,0-65.67,7.67-93,23-27.34,15.34-49,36.84-65,64.5-16,27.67-24,60.5-24,98.5s8,71,24,99,37.66,49.67,65,65c27.33,15.34,58.33,23,93,23,28.66,0,55.5-6.16,80.5-18.5,25-12.33,46.16-31.5,63.5-57.5l73,46c-20.67,36.67-49.84,64.84-87.5,84.5-37.67,19.67-80.5,29.5-128.5,29.5Z"/>
    <path class="cls-2" d="M1936.68,1045V303h96v742h-96Z"/>
    <path class="cls-2" d="M2143.67,413c-18.67,0-34.17-6-46.5-18-12.34-12-18.5-26.66-18.5-44s6.16-33,18.5-45c12.33-12,27.83-18,46.5-18s34.16,5.84,46.5,17.5c12.33,11.67,18.5,26.17,18.5,43.5s-6,33.17-18,45.5c-12,12.34-27.67,18.5-47,18.5ZM2095.67,1045v-530h96v530h-96Z"/>
    <path class="cls-2" d="M2238.66,594v-79h338v79h-338ZM2328.66,1045V468c0-52,15.16-93.5,45.5-124.5,30.33-31,73.5-46.5,129.5-46.5,20.66,0,40.5,2.5,59.5,7.5s35.16,12.84,48.5,23.5l-29,73c-10-8-21.34-14.16-34-18.5-12.67-4.33-26-6.5-40-6.5-28,0-49.34,7.84-64,23.5-14.67,15.67-22,38.84-22,69.5v71l2,44v461h-96Z"/>
    <path class="cls-2" d="M2632.66,594v-79h338v79h-338ZM2722.66,1045V468c0-52,15.16-93.5,45.5-124.5,30.33-31,73.5-46.5,129.5-46.5,20.66,0,40.5,2.5,59.5,7.5s35.16,12.84,48.5,23.5l-29,73c-10-8-21.34-14.16-34-18.5-12.67-4.33-26-6.5-40-6.5-28,0-49.34,7.84-64,23.5-14.67,15.67-22,38.84-22,69.5v71l2,44v461h-96Z"/>
    <path class="cls-2" d="M3206.66,1051c-39.34,0-73.84-6.66-103.5-20-29.67-13.33-52.5-31.83-68.5-55.5-16-23.66-24-50.5-24-80.5s6.83-54.66,20.5-78c13.66-23.33,36-42,67-56s72.83-21,125.5-21h168v69h-164c-48,0-80.34,8-97,24-16.67,16-25,35.34-25,58,0,26,10.33,46.84,31,62.5,20.66,15.67,49.33,23.5,86,23.5s67.5-8,94.5-24,46.5-39.33,58.5-70l19,66c-12.67,31.34-35,56.17-67,74.5-32,18.34-72.34,27.5-121,27.5ZM3380.66,1045v-112l-5-21v-191c0-40.66-11.84-72.16-35.5-94.5-23.67-22.33-59.17-33.5-106.5-33.5-31.34,0-62,5.17-92,15.5-30,10.34-55.34,24.17-76,41.5l-40-72c27.33-22,60.16-38.83,98.5-50.5,38.33-11.66,78.5-17.5,120.5-17.5,72.66,0,128.66,17.67,168,53,39.33,35.34,59,89.34,59,162v320h-91Z"/>
    <path class="cls-2" d="M3529.65,1045V303h96v353l-10,123,6,123v143h-92ZM3810.65,1051c-45.34,0-86.17-10.16-122.5-30.5-36.34-20.33-65-50.5-86-90.5s-31.5-90-31.5-150,10.83-110,32.5-150c21.66-40,50.66-70,87-90,36.33-20,76.5-30,120.5-30,52,0,98,11.34,138,34,40,22.67,71.66,54.17,95,94.5,23.33,40.34,35,87.5,35,141.5s-11.67,101.34-35,142c-23.34,40.67-55,72.34-95,95-40,22.67-86,34-138,34ZM3802.65,967c34,0,64.5-7.66,91.5-23,27-15.33,48.33-37.16,64-65.5,15.66-28.33,23.5-61.16,23.5-98.5s-7.84-70.83-23.5-98.5c-15.67-27.66-37-49.16-64-64.5-27-15.33-57.5-23-91.5-23s-63.5,7.67-90.5,23c-27,15.34-48.34,36.84-64,64.5-15.67,27.67-23.5,60.5-23.5,98.5s7.83,70.17,23.5,98.5c15.66,28.34,37,50.17,64,65.5,27,15.34,57.16,23,90.5,23Z"/>
    <path class="cls-2" d="M4131.64,1045V303h96v742h-96Z"/>
    <path class="cls-2" d="M4566.63,1051c-56.67,0-106.5-11.66-149.5-35-43-23.33-76.34-55.33-100-96-23.67-40.66-35.5-87.33-35.5-140s11.5-99.33,34.5-140c23-40.66,54.66-72.5,95-95.5,40.33-23,85.83-34.5,136.5-34.5s96.66,11.34,136,34c39.33,22.67,70.16,54.5,92.5,95.5,22.33,41,33.5,88.84,33.5,143.5,0,4-.17,8.67-.5,14-.34,5.34-.84,10.34-1.5,15h-451v-69h401l-39,24c.66-34-6.34-64.33-21-91-14.67-26.66-34.84-47.5-60.5-62.5-25.67-15-55.5-22.5-89.5-22.5s-63,7.5-89,22.5-46.34,36-61,63c-14.67,27-22,57.84-22,92.5v16c0,35.34,8.16,66.84,24.5,94.5,16.33,27.67,39.16,49.17,68.5,64.5,29.33,15.34,63,23,101,23,31.33,0,59.83-5.33,85.5-16,25.66-10.66,48.16-26.66,67.5-48l53,62c-24,28-53.84,49.34-89.5,64-35.67,14.67-75.5,22-119.5,22Z"/>
  </g>
</svg>