<?xml version="1.0" encoding="UTF-8"?>
<svg id="Layer_1" data-name="Layer 1" xmlns="http://www.w3.org/2000/svg" viewBox="0 0 1338.52 1350">
  <defs>
    <style>
      .cls-1 {
        fill: none;
      }
    </style>
  </defs>
  <path class="cls-1" d="M838.49,1061.98c-51.79,21.91-106.8,33.02-163.49,33.02s-111.69-11.11-163.49-33.02c-50.02-21.16-94.93-51.44-133.49-90-38.56-38.56-68.84-83.48-90-133.49-21.91-51.79-33.02-106.8-33.02-163.49s11.11-111.69,33.02-163.49c17.91-42.34,42.38-81.01,72.86-115.28l-109.76-109.76c-44.64,48.61-80.22,103.91-105.94,164.72-29.98,70.87-45.18,146.17-45.18,223.81s15.2,152.94,45.18,223.81c28.96,68.47,70.42,129.96,123.24,182.78,52.81,52.81,114.31,94.28,182.78,123.24,70.87,29.98,146.17,45.18,223.81,45.18s152.94-15.2,223.81-45.18c60.81-25.72,116.11-61.31,164.72-105.94l-109.76-109.76c-34.27,30.48-72.94,54.95-115.28,72.86Z"/>
  <path class="cls-1" d="M413.37,936.63c69.88,69.88,162.8,108.37,261.63,108.37,90.45,0,175.93-32.26,243.35-91.29L396.29,431.65c-59.04,67.42-91.29,152.9-91.29,243.35,0,98.83,38.49,191.75,108.37,261.63Z"/>
  <path d="M1250.88,918.29c16.88-39.92,29.44-81.12,37.64-123.29h-51.02c-7.53,35.45-18.43,70.13-32.67,103.81-25.72,60.81-61.31,116.11-105.94,164.72l35.39,35.39c49.19-53.21,88.37-113.86,116.61-180.63Z"/>
  <path d="M451.19,145.18c70.87-29.98,146.17-45.18,223.81-45.18s152.94,15.2,223.81,45.18c68.47,28.96,129.96,70.42,182.78,123.24,52.81,52.81,94.28,114.31,123.24,182.78,14.24,33.68,25.14,68.36,32.67,103.81h51.02c-8.2-42.17-20.76-83.37-37.64-123.29-31.48-74.43-76.54-141.27-133.93-198.66-57.39-57.39-124.23-102.45-198.66-133.93-77.07-32.6-158.92-49.13-243.29-49.13s-166.22,16.53-243.29,49.13c-66.76,28.24-127.42,67.41-180.63,116.61l35.39,35.39c48.61-44.64,103.91-80.22,164.72-105.94Z"/>
  <path d="M898.81,1204.82c-70.87,29.98-146.17,45.18-223.81,45.18s-152.94-15.2-223.81-45.18c-68.47-28.96-129.96-70.42-182.78-123.24-52.81-52.82-94.28-114.31-123.24-182.78-29.98-70.87-45.18-146.17-45.18-223.81s15.2-152.94,45.18-223.81c25.72-60.81,61.31-116.11,105.94-164.72l-35.39-35.39c-49.19,53.21-88.37,113.86-116.61,180.63-32.6,77.07-49.13,158.92-49.13,243.29s16.53,166.22,49.13,243.29c31.48,74.43,76.54,141.26,133.93,198.66,57.39,57.39,124.23,102.45,198.66,133.93,77.07,32.6,158.92,49.13,243.29,49.13s166.22-16.53,243.29-49.13c66.77-28.24,127.42-67.41,180.63-116.61l-35.39-35.39c-48.61,44.64-103.91,80.22-164.72,105.94Z"/>
  <path d="M1061.99,838.49c6.03-14.26,11.24-28.77,15.63-43.49h-52.44c-15.39,45.03-39.49,86.85-71.46,123.36l35.41,35.41c30.48-34.27,54.95-72.94,72.86-115.28Z"/>
  <path d="M675,305c98.83,0,191.75,38.49,261.63,108.37,40.56,40.56,70.52,88.89,88.54,141.63h52.44c-4.39-14.72-9.6-29.23-15.63-43.49-21.16-50.02-51.44-94.93-90-133.49-38.56-38.56-83.48-68.84-133.49-90-51.79-21.91-106.8-33.02-163.49-33.02s-111.69,11.11-163.49,33.02c-42.34,17.91-81.01,42.38-115.28,72.86l35.42,35.42c67.42-59.04,152.9-91.29,243.35-91.29Z"/>
  <path d="M255,675c0,56.69,11.11,111.7,33.02,163.49,21.15,50.02,51.44,94.93,90,133.49,38.56,38.56,83.48,68.84,133.49,90,51.8,21.91,106.8,33.02,163.49,33.02s111.7-11.11,163.49-33.02c42.34-17.91,81.01-42.38,115.28-72.86l-35.42-35.42c-67.42,59.04-152.9,91.29-243.35,91.29-98.83,0-191.75-38.49-261.63-108.37s-108.37-162.8-108.37-261.63c0-90.45,32.26-175.93,91.29-243.35l-35.42-35.42c-30.48,34.27-54.95,72.94-72.86,115.28-21.91,51.8-33.02,106.8-33.02,163.49Z"/>
  <rect x="332.15" y="170.93" width="50" height="231.08" transform="translate(-97.96 336.45) rotate(-45)"/>
  <rect x="1121.84" y="704.46" width="50" height="231.08" transform="translate(326.84 1966.84) rotate(-90)"/>
  <rect x="1136.42" y="414.46" width="50" height="231.08" transform="translate(631.42 1691.42) rotate(-90)"/>
  <rect x="963.64" y="943.76" width="50" height="231.08" transform="translate(-459.47 1009.33) rotate(-45)"/>
</svg>